<svg width="23" height="23" viewBox="0 0 23 23" fill="none" xmlns="http://www.w3.org/2000/svg">
<path d="M9.89922 10.9663L8.63589 9.1999L6.16846 12.6499H8.63589H11.1033H17.2719L12.9539 6.8999L9.89922 10.9663Z" fill="white"/>
<path d="M8.02273 8.05016C9.04682 8.05016 9.87701 7.27631 9.87701 6.32171C9.87701 5.36712 9.04682 4.59326 8.02273 4.59326C6.99864 4.59326 6.16846 5.36712 6.16846 6.32171C6.16846 7.27631 6.99864 8.05016 8.02273 8.05016Z" fill="white"/>
<path d="M19.7395 0H3.70115C2.21329 0 0 0.91885 0 3.45V13.8V17.25V19.55C0 22.0812 2.21329 23 3.70115 23H22.2069V20.7H3.71595C3.14598 20.6862 2.46743 20.4769 2.46743 19.55C2.46743 18.6231 3.14598 18.4138 3.71595 18.4H19.7395H20.9732H22.2069V17.25V13.8V2.3C22.2069 1.03155 21.1003 0 19.7395 0ZM19.7395 16.1H2.46743V13.8V3.45C2.46743 2.5231 3.14598 2.3138 3.70115 2.3H19.7395V13.8V16.1Z" fill="white"/>
</svg>
