<svg width="45" height="50" viewBox="0 0 45 50" fill="none" xmlns="http://www.w3.org/2000/svg">
<path d="M42.5 0H7.5C4.485 0 0 1.9975 0 7.5V42.5C0 48.0025 4.485 50 7.5 50H45V45H7.53C6.375 44.97 5 44.515 5 42.5C5 40.485 6.375 40.03 7.53 40H45V2.5C45 1.83696 44.7366 1.20107 44.2678 0.732233C43.7989 0.263392 43.163 0 42.5 0ZM16.2575 7.5C17.2541 7.5 18.2098 7.89588 18.9145 8.60055C19.6191 9.30521 20.015 10.2609 20.015 11.2575C20.015 12.2541 19.6191 13.2098 18.9145 13.9145C18.2098 14.6191 17.2541 15.015 16.2575 15.015C15.2609 15.015 14.3052 14.6191 13.6005 13.9145C12.8959 13.2098 12.5 12.2541 12.5 11.2575C12.5 10.2609 12.8959 9.30521 13.6005 8.60055C14.3052 7.89588 15.2609 7.5 16.2575 7.5ZM22.5 27.5H10L17.5 20L21.25 23.4975L28.75 15L37.5 27.5H22.5Z" fill="white"/>
</svg>
