<svg width="44" height="50" viewBox="0 0 44 50" fill="none" xmlns="http://www.w3.org/2000/svg">
<path d="M41.5 0H6.5C3.485 0 -1 1.9975 -1 7.5V42.5C-1 48.0025 3.485 50 6.5 50H44V45H6.53C5.375 44.97 4 44.515 4 42.5C4 40.485 5.375 40.03 6.53 40H44V2.5C44 1.83696 43.7366 1.20107 43.2678 0.732233C42.7989 0.263392 42.163 0 41.5 0ZM15.2575 7.5C16.2541 7.5 17.2098 7.89588 17.9145 8.60055C18.6191 9.30521 19.015 10.2609 19.015 11.2575C19.015 12.2541 18.6191 13.2098 17.9145 13.9145C17.2098 14.6191 16.2541 15.015 15.2575 15.015C14.261 15.015 13.3052 14.6191 12.6005 13.9145C11.8959 13.2098 11.5 12.2541 11.5 11.2575C11.5 10.2609 11.8959 9.30521 12.6005 8.60055C13.3052 7.89588 14.261 7.5 15.2575 7.5ZM21.5 27.5H9L16.5 20L20.25 23.4975L27.75 15L36.5 27.5H21.5Z" fill="black"/>
</svg>
