<svg width="22" height="22" viewBox="0 0 22 22" fill="none" xmlns="http://www.w3.org/2000/svg">
<g clip-path="url(#clip0_1541_1320)">
<path d="M21.0834 17.4167C21.0834 17.9029 20.8903 18.3692 20.5464 18.713C20.2026 19.0568 19.7363 19.25 19.2501 19.25H2.75008C2.26385 19.25 1.79754 19.0568 1.45372 18.713C1.1099 18.3692 0.916748 17.9029 0.916748 17.4167V7.33333C0.916748 6.8471 1.1099 6.38079 1.45372 6.03697C1.79754 5.69315 2.26385 5.5 2.75008 5.5H6.41675L8.25008 2.75H13.7501L15.5834 5.5H19.2501C19.7363 5.5 20.2026 5.69315 20.5464 6.03697C20.8903 6.38079 21.0834 6.8471 21.0834 7.33333V17.4167Z" stroke="white" stroke-width="2" stroke-linecap="round" stroke-linejoin="round"/>
<path d="M10.9999 15.5833C13.025 15.5833 14.6666 13.9417 14.6666 11.9167C14.6666 9.89162 13.025 8.25 10.9999 8.25C8.97487 8.25 7.33325 9.89162 7.33325 11.9167C7.33325 13.9417 8.97487 15.5833 10.9999 15.5833Z" stroke="white" stroke-width="2" stroke-linecap="round" stroke-linejoin="round"/>
</g>
<defs>
<clipPath id="clip0_1541_1320">
<rect width="22" height="22" fill="white"/>
</clipPath>
</defs>
</svg>
