<svg width="58" height="53" viewBox="0 0 58 53" fill="none" xmlns="http://www.w3.org/2000/svg">
<path d="M21.2491 0.000108303C16.2664 -0.0262992 11.4155 4.77987 13.63 10.748H5.27273C3.87431 10.748 2.53317 11.3044 1.54435 12.2949C0.555518 13.2854 0 14.6287 0 16.0295V21.311C0 22.0113 0.277759 22.683 0.772173 23.1783C1.26659 23.6735 1.93716 23.9517 2.63636 23.9517H26.3636V16.0295H31.6364V23.9517H55.3636C56.0628 23.9517 56.7334 23.6735 57.2278 23.1783C57.7222 22.683 58 22.0113 58 21.311V16.0295C58 14.6287 57.4445 13.2854 56.4557 12.2949C55.4668 11.3044 54.1257 10.748 52.7273 10.748H44.37C47.4545 2.11271 35.8545 -3.98743 30.5027 3.45949L29 5.46646L27.4973 3.40668C25.8364 1.05641 23.5427 0.0265158 21.2491 0.000108303ZM21.0909 5.46646C23.4373 5.46646 24.6236 8.31848 22.9627 9.98215C21.3018 11.6458 18.4545 10.4575 18.4545 8.10722C18.4545 7.40685 18.7323 6.73516 19.2267 6.23992C19.7211 5.74469 20.3917 5.46646 21.0909 5.46646ZM36.9091 5.46646C39.2555 5.46646 40.4418 8.31848 38.7809 9.98215C37.12 11.6458 34.2727 10.4575 34.2727 8.10722C34.2727 7.40685 34.5505 6.73516 35.0449 6.23992C35.5393 5.74469 36.2099 5.46646 36.9091 5.46646ZM2.63636 26.5925V47.7185C2.63636 49.1192 3.19188 50.4626 4.18071 51.4531C5.16954 52.4436 6.51068 53 7.90909 53H50.0909C51.4893 53 52.8305 52.4436 53.8193 51.4531C54.8081 50.4626 55.3636 49.1192 55.3636 47.7185V26.5925H31.6364V47.7185H26.3636V26.5925H2.63636Z" fill="white"/>
</svg>
