<svg width="117" height="19" viewBox="0 0 117 19" fill="none" xmlns="http://www.w3.org/2000/svg">
<path d="M0.92 12.688V0.591999H25.592V12.688H15V14.672H26.392V17.744H0.28V14.672H11.8V12.688H0.92ZM4.12 9.616H22.392V3.664H4.12V9.616ZM38.9515 15.056C44.3595 15.056 46.0555 12.816 46.0555 9.232C46.0555 5.648 44.3595 3.376 38.9515 3.376C33.5115 3.376 31.8475 5.648 31.8475 9.232C31.8475 12.816 33.5115 15.056 38.9515 15.056ZM28.6475 9.232C28.6475 4.464 31.6235 0.303999 38.9515 0.303999C46.2155 0.303999 49.2555 4.464 49.2555 9.232C49.2555 14 46.2155 18.128 38.9515 18.128C31.6555 18.128 28.6475 14 28.6475 9.232ZM51.1435 18.384V0.24H54.3435V0.879999H57.7035V3.92H54.3435V18.384H51.1435ZM59.9513 12.688V0.591999H84.6233V12.688H74.0312V14.672H85.4233V17.744H59.3113V14.672H70.8313V12.688H59.9513ZM63.1513 9.616H81.4233V3.664H63.1513V9.616ZM97.9828 15.056C103.391 15.056 105.087 12.816 105.087 9.232C105.087 5.648 103.391 3.376 97.9828 3.376C92.5428 3.376 90.8788 5.648 90.8788 9.232C90.8788 12.816 92.5428 15.056 97.9828 15.056ZM87.6788 9.232C87.6788 4.464 90.6548 0.303999 97.9828 0.303999C105.247 0.303999 108.287 4.464 108.287 9.232C108.287 14 105.247 18.128 97.9828 18.128C90.6868 18.128 87.6788 14 87.6788 9.232ZM110.175 18.384V0.24H113.375V0.879999H116.735V3.92H113.375V18.384H110.175Z" fill="#1C66FD"/>
</svg>
