<svg width="32" height="35" viewBox="0 0 32 35" fill="none" xmlns="http://www.w3.org/2000/svg">
<path d="M16.9757 3.60464L18.332 2.24931C18.8235 1.72233 18.809 0.901106 18.2993 0.391786C17.7894 -0.117534 16.9676 -0.132157 16.4403 0.358973L12.871 3.92564C12.3492 4.4478 12.3492 5.29381 12.871 5.81597L16.4403 9.38264C16.9628 9.90408 17.8094 9.90408 18.332 9.38264C18.854 8.86048 18.854 8.01447 18.332 7.49231L17.1541 6.31531C23.1636 7.05913 27.847 11.8789 28.4142 17.9034C28.9813 23.9279 25.2797 29.5359 19.5143 31.3867C13.7491 33.2374 7.47169 30.8328 4.4216 25.6053C1.37152 20.378 2.36965 13.7343 6.8212 9.63231C7.25272 9.11978 7.23808 8.36739 6.78729 7.8718C6.3365 7.37621 5.58821 7.29025 5.03658 7.67064C-0.391859 12.6672 -1.57845 20.7792 2.19191 27.1193C5.96226 33.4594 13.6597 36.2962 20.6466 33.9202C27.6334 31.5443 32.0016 24.6046 31.1193 17.2824C30.237 9.96026 24.3452 4.2552 16.9935 3.60464H16.9757Z" fill="black"/>
</svg>
